<?xml version="1.0" encoding="UTF-8" standalone="no"?>
<!-- Created with Inkscape (http://www.inkscape.org/) -->

<svg
   xmlns:dc="http://purl.org/dc/elements/1.1/"
   xmlns:cc="http://creativecommons.org/ns#"
   xmlns:rdf="http://www.w3.org/1999/02/22-rdf-syntax-ns#"
   xmlns:svg="http://www.w3.org/2000/svg"
   xmlns="http://www.w3.org/2000/svg"
   xmlns:xlink="http://www.w3.org/1999/xlink"
   xmlns:sodipodi="http://sodipodi.sourceforge.net/DTD/sodipodi-0.dtd"
   xmlns:inkscape="http://www.inkscape.org/namespaces/inkscape"
   width="700"
   height="280"
   id="svg2"
   sodipodi:version="0.32"
   inkscape:version="0.92.3 (2405546, 2018-03-11)"
   version="1.1"
   sodipodi:docname="gb.svg"
   inkscape:export-filename="/home/flo/wanadev/devel/private/gbvr/gif/gb_mask.png"
   inkscape:export-xdpi="96"
   inkscape:export-ydpi="96">
  <defs
     id="defs4" />
  <sodipodi:namedview
     id="base"
     pagecolor="#ffffff"
     bordercolor="#666666"
     borderopacity="1.0"
     inkscape:pageopacity="0.0"
     inkscape:pageshadow="2"
     inkscape:zoom="1"
     inkscape:cx="38.66192"
     inkscape:cy="171.97289"
     inkscape:document-units="px"
     inkscape:current-layer="layer1"
     inkscape:window-width="1920"
     inkscape:window-height="1016"
     inkscape:window-x="1920"
     inkscape:window-y="27"
     showgrid="false"
     inkscape:window-maximized="1"
     units="px"
     borderlayer="true" />
  <metadata
     id="metadata7">
    <rdf:RDF>
      <cc:Work
         rdf:about="">
        <dc:format>image/svg+xml</dc:format>
        <dc:type
           rdf:resource="http://purl.org/dc/dcmitype/StillImage" />
        <dc:title></dc:title>
      </cc:Work>
    </rdf:RDF>
  </metadata>
  <g
     inkscape:label="gifs"
     inkscape:groupmode="layer"
     id="layer1"
     style="display:inline;opacity:1"
     transform="translate(0,-842.51962)">
    <image
       sodipodi:absref="/home/flo/wanadev/devel/private/gbvr/gif/L.gif"
       xlink:href="L.gif"
       y="902.51965"
       x="168"
       id="image831"
       preserveAspectRatio="none"
       height="160"
       width="144" />
    <image
       sodipodi:absref="/home/flo/wanadev/devel/private/gbvr/gif/R.gif"
       xlink:href="R.gif"
       y="902.51959"
       x="394"
       id="image1759"
       preserveAspectRatio="none"
       height="160"
       width="144" />
  </g>
  <g
     inkscape:groupmode="layer"
     id="layer2"
     inkscape:label="gb"
     style="opacity:1"
     transform="translate(0,-842.51962)"
     sodipodi:insensitive="true">
    <g
       id="g1601">
      <g
         transform="translate(-80,614)"
         id="g1526">
        <path
           style="fill:#5a00dd;fill-opacity:1;stroke-width:1"
           d="m 7.7460938,230.2168 c -10.8308348,0 -20.3644268,5.5387 -25.9374998,13.93164 l -0.002,-0.002 c 0,0 -15.087891,15.56381 -15.087891,126.44336 0,69.78903 6.38226,100.75898 11.109375,114.13282 3.715809,13.02648 15.6994539,22.5664 29.9179688,22.5664 v 0.0742 h 413.4257832 v 0.002 c 6.63436,0 12.01367,-5.37802 12.01367,-12.01367 v -253.12109 c 0,-6.63436 -5.37931,-12.01367 -12.01367,-12.01367 z m 243.8339862,58.70703 h 136.98828 v 159.36719 h -136.98828 z"
           id="path1064"
           inkscape:connector-curvature="0" />
        <path
           style="opacity:0.16600001;fill:#b5a5f1;fill-opacity:1;stroke-width:1"
           d="m 36.947266,274.58203 c -7.361832,0 -13.842537,3.76507 -17.632813,9.4707 -0.0039,0.007 -5.634765,10.60588 -5.634765,85.96094 0,47.44546 -0.284956,68.50031 2.929687,77.5918 2.527622,8.85565 10.672172,15.34375 20.337891,15.34375 h 4.625 v 0.0508 h 391.613284 v -188.41797 h -396.236331 z m 214.632814,14.3418 h 136.98828 v 159.36719 h -136.98828 z"
           id="path1066"
           inkscape:connector-curvature="0" />
        <circle
           style="fill:#333334;stroke-width:1"
           cx="416.50934"
           cy="-119.98674"
           r="17.165272"
           id="circle1068"
           transform="rotate(90)" />
        <circle
           style="fill:#333334;stroke-width:1"
           cx="467.24506"
           cy="-135.62544"
           r="17.166552"
           id="circle1070"
           transform="rotate(90)" />
        <path
           style="fill:#333334;stroke-width:1"
           inkscape:connector-curvature="0"
           d="m 140.46278,316.00558 v -17.54723 h 17.54724 c 1.92904,0 3.49278,-1.56374 3.49278,-3.49279 v -17.29344 c 0,-1.92776 -1.56374,-3.4915 -3.49278,-3.4915 h -17.54724 v -17.54724 c 0,-1.92904 -1.56246,-3.49278 -3.49278,-3.49278 h -17.29217 c -1.92904,0 -3.49278,1.56374 -3.49278,3.49278 v 17.54724 h -17.545952 c -1.930324,0 -3.494066,1.56374 -3.494066,3.4915 v 17.29344 c 0,1.92905 1.563742,3.49279 3.494066,3.49279 h 17.545952 v 17.54723 c 0,1.92904 1.56374,3.49279 3.49278,3.49279 h 17.29217 c 1.93032,0 3.49278,-1.56375 3.49278,-3.49279 z"
           id="path1072" />
        <path
           style="stroke-width:1"
           inkscape:connector-curvature="0"
           d="m 52.692005,354.74921 v -16.44493 c 0,-2.26998 -1.840601,-4.11059 -4.111872,-4.11059 -2.269989,0 -4.11059,1.84061 -4.11059,4.11059 v 16.44621 c 0,2.26999 1.841882,4.11187 4.11059,4.11187 2.271271,-0.001 4.111872,-1.84188 4.111872,-4.11315 z"
           id="path1074" />
        <path
           style="stroke-width:1"
           inkscape:connector-curvature="0"
           d="m 52.692005,396.28578 v -16.44492 c 0,-2.26999 -1.840601,-4.11188 -4.111872,-4.11188 -2.269989,0 -4.11059,1.84189 -4.11059,4.11188 v 16.44492 c 0,2.26999 1.841882,4.11187 4.11059,4.11187 2.271271,0 4.111872,-1.8406 4.111872,-4.11187 z"
           id="path1076" />
        <circle
           style="fill:#414042;stroke-width:1"
           cx="286.38293"
           cy="-128.32457"
           r="6.6971731"
           id="circle1078"
           transform="rotate(90)" />
        <path
           style="fill:#414042;stroke-width:1"
           inkscape:connector-curvature="0"
           d="m 110.44919,292.54561 0.004,-0.003 c 0.12048,0.0436 0.24994,0.0718 0.38581,0.0718 0.6319,0 1.14589,-0.5127 1.14589,-1.1446 v -10.1733 c 0,-0.6319 -0.51271,-1.14461 -1.14589,-1.14461 -0.15253,0 -0.29737,0.0308 -0.43067,0.0859 h -0.003 l -0.004,0.001 c -0.0718,0.0295 -0.13843,0.0667 -0.20252,0.10895 l -9.33759,4.97962 c -0.41272,0.17304 -0.70368,0.58064 -0.70368,1.05617 0,0.44861 0.25891,0.83058 0.63447,1.019 v 0 l 9.38629,4.99884 c 0.0782,0.0551 0.1615,0.1 0.25123,0.13331 z"
           id="path1080" />
        <path
           style="fill:#414042;stroke-width:1"
           inkscape:connector-curvature="0"
           d="m 146.19864,280.22025 -0.004,0.003 c -0.12176,-0.0436 -0.24994,-0.0718 -0.38709,-0.0718 -0.63062,0 -1.1446,0.51142 -1.1446,1.14461 v 10.17329 c 0,0.63191 0.5127,1.14461 1.1446,1.14461 0.15381,0 0.29865,-0.0308 0.43196,-0.0859 h 0.003 l 0.003,-10e-4 c 0.0718,-0.0295 0.13971,-0.0667 0.2038,-0.10895 l 9.33631,-4.97962 c 0.41272,-0.17303 0.70497,-0.58063 0.70497,-1.05616 0,-0.44734 -0.2602,-0.83058 -0.63447,-1.019 v -0.001 l -9.3863,-4.99757 c -0.0782,-0.0551 -0.1615,-0.1 -0.25122,-0.1333 z"
           id="path1082" />
        <path
           style="fill:#414042;stroke-width:1"
           inkscape:connector-curvature="0"
           d="m 134.48596,304.25829 -0.003,-0.004 c 0.0436,-0.12177 0.0718,-0.24995 0.0718,-0.38709 0,-0.63191 -0.5127,-1.14461 -1.14461,-1.14461 h -10.17457 c -0.63191,0 -1.14461,0.5127 -1.14461,1.14461 0,0.15381 0.0308,0.29865 0.0859,0.43195 h -10e-4 l 0.003,0.004 c 0.0295,0.0718 0.0654,0.13972 0.10767,0.2038 l 4.9809,9.33759 c 0.17304,0.41273 0.57935,0.70369 1.05488,0.70369 0.44862,0 0.83058,-0.25892 1.02028,-0.63447 v 0 l 4.99757,-9.3863 c 0.0564,-0.0782 0.1,-0.1615 0.1333,-0.25122 z"
           id="path1084" />
        <path
           style="fill:#414042;stroke-width:1"
           inkscape:connector-curvature="0"
           d="m 122.16059,268.50885 0.004,0.004 c -0.0436,0.12049 -0.0718,0.24994 -0.0718,0.38581 0,0.63191 0.51142,1.14461 1.14461,1.14461 h 10.17458 c 0.63062,0 1.1446,-0.5127 1.1446,-1.14461 0,-0.15381 -0.0308,-0.29865 -0.0859,-0.43195 l 0.001,-10e-4 -0.001,-0.004 c -0.0295,-0.0718 -0.0667,-0.13971 -0.10895,-0.2038 l -4.97962,-9.33759 c -0.17304,-0.41272 -0.58192,-0.7024 -1.05617,-0.7024 -0.44862,0 -0.83058,0.25892 -1.019,0.63319 h -10e-4 l -4.99884,9.38758 c -0.0538,0.0769 -0.0987,0.1615 -0.13331,0.25122 z"
           id="path1086" />
        <g
           style="stroke-width:0.78017998"
           id="g1090"
           transform="matrix(0,1.2817556,-1.2817556,0,433.185,230.21768)">
          <path
             style="fill:#414042;stroke-width:0.78017998"
             inkscape:connector-curvature="0"
             d="m 142.388,251.008 h -3.274 v -12.321 h 3.098 c 1.954,0 3.415,0.968 3.415,3.257 0,1.003 -0.457,2.094 -1.443,2.552 1.039,0.37 1.654,1.461 1.654,2.799 -0.001,2.463 -1.409,3.713 -3.45,3.713 z m -0.124,-10.649 h -1.443 v 3.345 h 1.408 c 0.916,0 1.637,-0.528 1.637,-1.707 -0.001,-1.215 -0.67,-1.638 -1.602,-1.638 z m -0.071,4.999 h -1.373 v 3.978 h 1.55 c 1.038,0 1.707,-0.562 1.707,-2.041 0,-1.374 -0.809,-1.937 -1.884,-1.937 z"
             id="path1088" />
        </g>
        <g
           style="stroke-width:0.78017998"
           id="g1094"
           transform="matrix(0,1.2817556,-1.2817556,0,433.185,230.21768)">
          <path
             style="fill:#414042;stroke-width:0.78017998"
             inkscape:connector-curvature="0"
             d="m 184.629,238.905 -0.722,-3.256 h -2.676 l -0.704,3.256 h -1.83 l 3.027,-12.32 h 1.778 l 3.01,12.32 z m -1.531,-6.97 c -0.176,-0.81 -0.44,-2.235 -0.528,-2.693 -0.088,0.458 -0.352,1.866 -0.527,2.693 l -0.458,2.076 h 1.972 z"
             id="path1092" />
        </g>
        <path
           style="stroke-width:1"
           d="m 218.68945,247.01172 c -4.37079,0 -7.94396,3.37982 -8.26953,7.66601 h -0.0312 c 0,0 -7.04101,37.72224 -7.04101,113.80469 0,76.08245 7.04101,113.80469 7.04101,113.80469 h 0.0312 c 0.32557,4.2862 3.89874,7.66406 8.26953,7.66406 h 189.20703 c 4.58612,0.001 8.30079,-3.71594 8.30079,-8.30078 v -226.33594 c 0,-4.58484 -3.71467,-8.30273 -8.30079,-8.30273 z m 32.89063,41.91211 h 136.98828 v 159.36719 h -136.98828 z"
           id="path1096"
           inkscape:connector-curvature="0" />
        <path
           style="fill:#333334;stroke-width:1"
           d="m 221.67578,250.99414 c -4.22723,0 -7.68469,3.27083 -8,7.41602 h -0.0293 c 0,0 -6.80859,36.48539 -6.80859,110.07226 0,73.58815 6.80859,110.07031 6.80859,110.07031 h 0.0293 c 0.26148,3.44792 2.70186,6.28509 5.94727,7.14258 l 32.10156,-37.40429 h -0.14453 v -159.36719 h 136.91992 l 24.20703,-28.20508 v -1.69336 c 0,-4.4336 -3.59442,-8.03125 -8.0293,-8.03125 z"
           id="path1098"
           inkscape:connector-curvature="0" />
        <g
           style="stroke-width:0.78017998"
           id="g1112"
           transform="matrix(0,1.2817556,-1.2817556,0,433.185,230.21768)">
          <path
             style="fill:#414042;stroke-width:0.78017998"
             inkscape:connector-curvature="0"
             d="m 19.58,71.789 h 1.185 c 0.184,0 0.36,0.018 0.527,0.054 0.167,0.036 0.316,0.096 0.446,0.18 0.13,0.084 0.233,0.197 0.311,0.338 0.078,0.141 0.115,0.315 0.115,0.522 0,0.218 -0.042,0.399 -0.124,0.542 -0.083,0.143 -0.189,0.256 -0.319,0.339 -0.129,0.083 -0.271,0.141 -0.426,0.175 -0.154,0.034 -0.301,0.051 -0.44,0.051 h -0.801 v 1.793 h -0.474 z m 0.474,1.76 h 0.801 c 0.237,0 0.43,-0.053 0.578,-0.161 0.148,-0.107 0.223,-0.273 0.223,-0.499 0,-0.226 -0.075,-0.393 -0.223,-0.5 -0.148,-0.107 -0.341,-0.161 -0.578,-0.161 h -0.801 z"
             id="path1102" />
          <path
             style="fill:#414042;stroke-width:0.78017998"
             inkscape:connector-curvature="0"
             d="m 24.668,75.884 c -0.305,0 -0.583,-0.053 -0.837,-0.158 -0.254,-0.105 -0.474,-0.251 -0.66,-0.437 -0.186,-0.187 -0.331,-0.408 -0.435,-0.666 -0.104,-0.257 -0.155,-0.537 -0.155,-0.837 0,-0.3 0.051,-0.581 0.155,-0.838 0.104,-0.257 0.249,-0.479 0.435,-0.666 0.186,-0.187 0.406,-0.332 0.66,-0.438 0.254,-0.105 0.533,-0.158 0.837,-0.158 0.304,0 0.584,0.053 0.838,0.158 0.254,0.105 0.474,0.251 0.66,0.438 0.186,0.186 0.331,0.408 0.434,0.666 0.104,0.257 0.155,0.537 0.155,0.838 0,0.301 -0.052,0.58 -0.155,0.837 -0.103,0.258 -0.248,0.479 -0.434,0.666 -0.187,0.186 -0.406,0.332 -0.66,0.437 -0.254,0.106 -0.533,0.158 -0.838,0.158 z m 0,-0.44 c 0.233,0 0.447,-0.043 0.64,-0.13 0.194,-0.086 0.361,-0.205 0.5,-0.355 0.139,-0.151 0.247,-0.326 0.324,-0.528 0.077,-0.201 0.115,-0.416 0.115,-0.646 0,-0.23 -0.038,-0.445 -0.115,-0.646 -0.077,-0.201 -0.186,-0.377 -0.324,-0.528 -0.139,-0.15 -0.306,-0.269 -0.5,-0.355 -0.193,-0.086 -0.407,-0.13 -0.64,-0.13 -0.233,0 -0.446,0.043 -0.64,0.13 -0.194,0.087 -0.36,0.205 -0.499,0.355 -0.139,0.15 -0.247,0.327 -0.324,0.528 -0.077,0.201 -0.116,0.417 -0.116,0.646 0,0.229 0.039,0.444 0.116,0.646 0.077,0.202 0.185,0.377 0.324,0.528 0.139,0.15 0.305,0.269 0.499,0.355 0.194,0.086 0.407,0.13 0.64,0.13 z"
             id="path1104" />
          <path
             style="fill:#414042;stroke-width:0.78017998"
             inkscape:connector-curvature="0"
             d="m 26.941,71.789 h 0.524 l 0.909,3.317 h 0.011 l 0.981,-3.317 h 0.53 l 0.976,3.317 h 0.011 l 0.925,-3.317 h 0.497 l -1.173,3.994 h -0.512 l -0.987,-3.384 h -0.011 l -0.993,3.384 h -0.519 z"
             id="path1106" />
          <path
             style="fill:#414042;stroke-width:0.78017998"
             inkscape:connector-curvature="0"
             d="m 32.836,71.789 h 2.511 v 0.44 h -2.037 v 1.252 h 1.901 v 0.44 h -1.901 v 1.422 h 2.138 v 0.439 h -2.612 z"
             id="path1108" />
          <path
             style="fill:#414042;stroke-width:0.78017998"
             inkscape:connector-curvature="0"
             d="m 36.182,71.789 h 1.021 c 0.192,0 0.382,0.011 0.572,0.034 0.19,0.023 0.361,0.072 0.511,0.147 0.15,0.075 0.272,0.185 0.367,0.33 0.094,0.145 0.141,0.341 0.141,0.59 0,0.293 -0.088,0.53 -0.265,0.71 -0.177,0.181 -0.421,0.295 -0.733,0.344 l 1.134,1.839 h -0.581 l -1.083,-1.793 h -0.609 v 1.793 h -0.474 v -3.994 z m 0.473,1.76 h 0.423 c 0.131,0 0.268,-0.003 0.409,-0.011 0.141,-0.008 0.271,-0.032 0.389,-0.074 0.119,-0.042 0.216,-0.106 0.293,-0.194 0.077,-0.088 0.116,-0.215 0.116,-0.381 0,-0.143 -0.028,-0.258 -0.084,-0.344 -0.056,-0.086 -0.131,-0.153 -0.223,-0.2 -0.092,-0.047 -0.195,-0.078 -0.31,-0.093 -0.114,-0.016 -0.23,-0.023 -0.347,-0.023 h -0.666 z"
             id="path1110" />
        </g>
        <circle
           style="fill:#ce181e;stroke-width:1"
           cx="257.22171"
           cy="-349.91318"
           r="3.7299089"
           id="circle1114"
           transform="rotate(90)" />
        <path
           style="fill:#414042;stroke-width:1"
           inkscape:connector-curvature="0"
           d="m 353.17653,278.40144 c -0.89466,0.7165 -2.02773,1.14589 -3.26335,1.14589 -1.23433,0 -2.36868,-0.42939 -3.26335,-1.14589 0.33711,1.49324 1.66885,2.60837 3.26335,2.60837 1.59451,-0.001 2.92625,-1.11641 3.26335,-2.60837 z"
           id="path1116" />
        <path
           style="fill:#414042;stroke-width:1"
           inkscape:connector-curvature="0"
           d="m 353.24703,271.8209 c -0.9062,0.74855 -2.06619,1.19844 -3.33385,1.19844 -1.26637,0 -2.42764,-0.44989 -3.33256,-1.19844 0.15509,1.70602 1.58681,3.04289 3.33256,3.04289 1.74576,0 3.17876,-1.33687 3.33385,-3.04289 z"
           id="path1118" />
        <path
           style="fill:#414042;stroke-width:1"
           inkscape:connector-curvature="0"
           d="m 353.26241,264.66999 c 0,-0.0282 -0.003,-0.0564 -0.004,-0.0859 -0.90749,0.75496 -2.0726,1.2087 -3.3441,1.2087 -1.27151,0 -2.43662,-0.45374 -3.3441,-1.2087 0,0.0295 -0.004,0.0564 -0.004,0.0859 0,1.84829 1.49837,3.34794 3.34795,3.34794 1.84957,0 3.34794,-1.49837 3.34794,-3.34794 z"
           id="path1120" />
        <g
           style="stroke-width:0.78017998"
           id="g1132"
           transform="matrix(0,1.2817556,-1.2817556,0,433.185,230.21768)">
          <polygon
             style="fill:#414042;stroke-width:0.78017998"
             points="88.677,161.086 85.093,161.086 85.482,158.739 88.599,158.739 88.928,156.743 85.813,156.743 86.19,154.469 89.77,154.469 90.086,152.52 84.393,152.52 82.649,163.086 88.347,163.086 "
             id="polygon1122" />
          <path
             style="fill:#414042;stroke-width:0.78017998"
             inkscape:connector-curvature="0"
             d="m 79.443,152.52 -2.577,5.746 -1.244,-5.746 h -2 l -2.901,8.92 -1.407,-8.92 h -2.514 l -3.896,8.54 0.358,-3.052 h -3.907 v 1.949 h 1.497 l -0.068,0.939 c 0,0 -0.51,0.414 -1.6,0.395 -1.388,-0.025 -2.738,-1.089 -2.616,-3.078 0.128,-2.077 2.308,-3.924 4.745,-3.949 1.574,-0.016 2.333,0.436 2.333,0.436 v -2 c 0,0 -0.154,-0.517 -2.206,-0.517 -3.427,0 -6.896,2.729 -6.898,6.235 -0.002,2.744 1.847,4.873 4.787,4.736 1.619,-0.075 2.548,-0.547 3.035,-0.912 l -0.385,0.844 h 2.309 l 1.387,-3.129 h 2.651 l 0.527,3.129 h 1.333 0.795 1.436 l 1.855,-6.069 1.453,6.069 h 1.333 l 2.945,-6.583 0.184,6.583 h 2.051 l -0.436,-10.566 z m -12.904,5.488 1.057,-2.385 0.401,2.385 z"
             id="path1124" />
          <path
             style="fill:#414042;stroke-width:0.78017998"
             inkscape:connector-curvature="0"
             d="m 106.337,152.557 c -2.336,-0.601 -4.833,1.26 -5.58,4.158 -0.745,2.897 0.544,5.732 2.88,6.334 2.334,0.601 4.833,-1.261 5.578,-4.158 0.746,-2.897 -0.543,-5.732 -2.878,-6.334 z m 0.959,5.84 c -0.464,1.802 -1.874,2.997 -3.149,2.668 -1.275,-0.329 -1.934,-2.055 -1.471,-3.857 0.465,-1.803 1.875,-2.997 3.15,-2.668 1.275,0.329 1.934,2.056 1.47,3.857 z"
             id="path1126" />
          <polygon
             style="fill:#414042;stroke-width:0.78017998"
             points="116.809,152.52 114.424,152.52 112.271,156.11 110.731,152.52 108.474,152.52 110.947,157.718 110.295,163.086 112.321,163.086 112.937,158.316 "
             id="polygon1128" />
          <path
             style="fill:#414042;stroke-width:0.78017998"
             inkscape:connector-curvature="0"
             d="m 100.276,155.255 c 0,-1.983 -1.265,-2.735 -2.428,-2.735 h -3.949 l -1.744,10.566 h 4.633 c 1.539,0 3.214,-1.112 3.214,-3.13 0,-2.017 -1.351,-2.29 -1.351,-2.29 0,0 1.625,-0.428 1.625,-2.411 z m -3.317,-0.786 c 0.717,0 1.129,0.342 1.111,1.025 -0.018,0.77 -0.411,1.249 -1.128,1.249 h -1.623 l 0.377,-2.274 z m -1.971,4.27 h 1.664 c 0.991,0.039 1.299,0.415 1.299,1.167 0,0.701 -0.352,1.181 -1.441,1.181 h -1.911 z"
             id="path1130" />
        </g>
        <g
           style="stroke-width:0.78017998"
           id="g1144"
           transform="matrix(0,1.2817556,-1.2817556,0,433.185,230.21768)">
          <path
             style="fill:#00a2bc;stroke-width:0.78017998"
             inkscape:connector-curvature="0"
             d="m 159.927,164.036 c -0.296,0 -0.592,-0.102 -0.832,-0.311 -0.03,-0.025 -3.002,-2.597 -3.889,-3.339 -0.085,-0.07 -0.168,-0.136 -0.248,-0.195 0.009,1.446 -0.104,2.464 -0.111,2.525 -0.078,0.698 -0.711,1.201 -1.408,1.121 -0.698,-0.079 -1.2,-0.709 -1.122,-1.407 v 0 c 0.002,-0.02 0.213,-1.952 -0.002,-4.194 -0.361,-3.771 -0.393,-4.792 1.146,-5.602 l 0.041,-0.022 c 1.124,-0.595 3.057,-0.473 4.304,-0.056 0.854,0.285 1.917,0.64 2.385,1.623 0.185,0.388 0.338,1.03 0.017,1.88 -0.438,1.164 -1.755,2.058 -3.043,2.646 1.129,0.957 3.487,2.999 3.598,3.094 0.531,0.461 0.59,1.265 0.129,1.797 -0.253,0.291 -0.608,0.44 -0.965,0.44 z m -5.259,-9.16 c -0.035,0.396 0.019,1.253 0.081,2.009 1.208,-0.31 2.684,-1.096 3.022,-1.625 -0.23,-0.108 -0.592,-0.229 -0.772,-0.289 -0.905,-0.302 -2.037,-0.251 -2.307,-0.109 z"
             id="path1134" />
          <path
             style="fill:#dc1f40;stroke-width:0.78017998"
             inkscape:connector-curvature="0"
             d="m 124.515,163.94 c -1.987,0 -3.401,-0.414 -4.363,-1.262 -0.922,-0.812 -1.388,-1.995 -1.388,-3.517 0,-3.201 3.73,-7.611 6.438,-7.611 1.255,0 1.954,0.487 2.32,0.896 0.679,0.759 0.617,1.649 0.599,1.82 -0.077,0.699 -0.707,1.204 -1.407,1.125 -0.646,-0.073 -1.125,-0.617 -1.132,-1.252 -0.069,-0.02 -0.193,-0.042 -0.38,-0.042 -0.876,0 -3.893,2.875 -3.893,5.065 0,1.024 0.3,1.406 0.524,1.605 0.493,0.434 1.737,0.868 4.863,0.471 0.694,-0.089 1.335,0.404 1.424,1.102 0.089,0.698 -0.404,1.336 -1.103,1.424 -0.919,0.117 -1.751,0.176 -2.502,0.176 z"
             id="path1136" />
          <path
             style="fill:#622d91;stroke-width:0.78017998"
             inkscape:connector-curvature="0"
             d="m 131.684,163.447 c -2.449,0 -4.305,-1.491 -4.617,-3.711 -0.179,-1.268 0.219,-2.649 1.092,-3.793 0.961,-1.259 2.387,-2.093 3.912,-2.289 0.155,-0.02 0.312,-0.029 0.47,-0.029 2.207,0 4.12,1.918 4.355,4.368 0.265,2.763 -1.414,4.921 -4.177,5.369 -0.348,0.056 -0.697,0.085 -1.035,0.085 z m 0.856,-7.276 c -0.05,0 -0.099,0.002 -0.146,0.009 -0.854,0.108 -1.66,0.585 -2.211,1.307 -0.462,0.605 -0.679,1.295 -0.595,1.893 0.193,1.371 1.53,1.52 2.096,1.52 0.203,0 0.414,-0.018 0.627,-0.053 1.418,-0.229 2.184,-1.206 2.05,-2.611 -0.124,-1.276 -1.041,-2.065 -1.821,-2.065 z"
             id="path1138" />
          <path
             style="fill:#f9d308;stroke-width:0.78017998"
             inkscape:connector-curvature="0"
             d="m 146.936,163.376 c -2.152,0 -3.793,-1.317 -4.391,-3.524 -0.335,-1.236 -0.049,-2.595 0.783,-3.728 0.975,-1.324 2.535,-2.123 4.284,-2.189 0.068,-0.003 0.139,-0.004 0.208,-0.004 2.49,0 4.448,1.659 4.653,3.943 0.236,2.637 -1.375,4.685 -4.206,5.343 -0.454,0.107 -0.902,0.159 -1.331,0.159 z m 0.884,-6.898 c -0.037,0 -0.074,0.001 -0.11,0.002 -0.97,0.037 -1.818,0.458 -2.329,1.153 -0.365,0.496 -0.507,1.077 -0.377,1.554 0.295,1.091 0.945,1.644 1.932,1.644 0.234,0 0.49,-0.031 0.756,-0.094 0.908,-0.211 2.407,-0.834 2.245,-2.635 -0.116,-1.282 -1.385,-1.624 -2.117,-1.624 z"
             id="path1140" />
          <path
             style="fill:#8dc13e;stroke-width:0.78017998"
             inkscape:connector-curvature="0"
             d="m 138.608,163.847 c -0.234,0 -0.476,-0.054 -0.716,-0.188 -0.846,-0.468 -0.846,-1.335 -0.846,-2.433 0,-0.755 -0.12,-2.29 -0.226,-3.645 -0.045,-0.577 -0.089,-1.133 -0.121,-1.611 -0.093,-1.329 -0.532,-2.223 -0.537,-2.231 -0.322,-0.625 -0.076,-1.39 0.55,-1.712 0.623,-0.323 1.394,-0.075 1.717,0.55 0.069,0.135 0.684,1.368 0.811,3.218 0.033,0.472 0.075,1.021 0.119,1.589 0.094,1.203 0.19,2.439 0.223,3.316 1.168,-0.475 2.534,-0.634 2.996,-0.634 0.703,0 1.273,0.57 1.273,1.273 0,0.703 -0.57,1.273 -1.273,1.273 -0.327,0 -1.725,0.199 -2.427,0.639 -0.401,0.252 -0.951,0.596 -1.543,0.596 z"
             id="path1142" />
        </g>
        <path
           style="opacity:0.3;fill:#ffffff;stroke-width:1"
           inkscape:connector-curvature="0"
           d="m 221.6761,485.96894 h 183.00266 c 4.43487,0 8.03019,-3.59533 8.03019,-8.0302 v -217.2204 l -193.08494,224.97758 c 0.65498,0.17432 1.34072,0.27302 2.05209,0.27302 z"
           id="path1146" />
        <g
           style="stroke-width:0.78017998"
           id="g1208"
           transform="matrix(0,1.2817556,-1.2817556,0,433.185,230.21768)">
          <circle
             style="stroke-width:0.78017998"
             cx="157.705"
             cy="309.07501"
             r="1.625"
             id="circle1148" />
          <circle
             style="stroke-width:0.78017998"
             cx="170.073"
             cy="307.35101"
             r="1.625"
             id="circle1150" />
          <circle
             style="stroke-width:0.78017998"
             cx="182.614"
             cy="305.405"
             r="1.625"
             id="circle1152" />
          <circle
             style="stroke-width:0.78017998"
             cx="195.155"
             cy="302.987"
             r="1.625"
             id="circle1154" />
          <circle
             style="stroke-width:0.78017998"
             cx="163.888"
             cy="314.341"
             r="1.625"
             id="circle1156" />
          <circle
             style="stroke-width:0.78017998"
             cx="176.38"
             cy="312.543"
             r="1.625"
             id="circle1158" />
          <circle
             style="stroke-width:0.78017998"
             cx="188.87199"
             cy="310.423"
             r="1.625"
             id="circle1160" />
          <circle
             style="stroke-width:0.78017998"
             cx="163.888"
             cy="301.983"
             r="1.625"
             id="circle1162" />
          <circle
             style="stroke-width:0.78017998"
             cx="176.38"
             cy="300.11099"
             r="1.625"
             id="circle1164" />
          <circle
             style="stroke-width:0.78017998"
             cx="188.87199"
             cy="298.13901"
             r="1.625"
             id="circle1166" />
          <circle
             style="stroke-width:0.78017998"
             cx="201.388"
             cy="307.85599"
             r="1.625"
             id="circle1168" />
          <circle
             style="stroke-width:0.78017998"
             cx="157.705"
             cy="321.44299"
             r="1.625"
             id="circle1170" />
          <circle
             style="stroke-width:0.78017998"
             cx="170.073"
             cy="319.819"
             r="1.625"
             id="circle1172" />
          <circle
             style="stroke-width:0.78017998"
             cx="182.614"
             cy="317.698"
             r="1.625"
             id="circle1174" />
          <circle
             style="stroke-width:0.78017998"
             cx="195.155"
             cy="315.39499"
             r="1.625"
             id="circle1176" />
          <circle
             style="stroke-width:0.78017998"
             cx="163.888"
             cy="326.84"
             r="1.625"
             id="circle1178" />
          <circle
             style="stroke-width:0.78017998"
             cx="176.256"
             cy="324.91199"
             r="1.625"
             id="circle1180" />
          <circle
             style="stroke-width:0.78017998"
             cx="188.87199"
             cy="322.87299"
             r="1.625"
             id="circle1182" />
          <circle
             style="stroke-width:0.78017998"
             cx="201.388"
             cy="320.25"
             r="1.625"
             id="circle1184" />
          <circle
             style="stroke-width:0.78017998"
             cx="157.705"
             cy="333.811"
             r="1.625"
             id="circle1186" />
          <circle
             style="stroke-width:0.78017998"
             cx="170.073"
             cy="332.186"
             r="1.625"
             id="circle1188" />
          <circle
             style="stroke-width:0.78017998"
             cx="182.614"
             cy="330.33801"
             r="1.625"
             id="circle1190" />
          <circle
             style="stroke-width:0.78017998"
             cx="195.155"
             cy="327.82101"
             r="1.625"
             id="circle1192" />
          <circle
             style="stroke-width:0.78017998"
             cx="163.888"
             cy="339.349"
             r="1.625"
             id="circle1194" />
          <circle
             style="stroke-width:0.78017998"
             cx="176.256"
             cy="337.577"
             r="1.625"
             id="circle1196" />
          <circle
             style="stroke-width:0.78017998"
             cx="188.87199"
             cy="335.40601"
             r="1.625"
             id="circle1198" />
          <circle
             style="stroke-width:0.78017998"
             cx="201.388"
             cy="332.79001"
             r="1.625"
             id="circle1200" />
          <circle
             style="stroke-width:0.78017998"
             cx="170.073"
             cy="344.728"
             r="1.625"
             id="circle1202" />
          <circle
             style="stroke-width:0.78017998"
             cx="182.614"
             cy="342.755"
             r="1.625"
             id="circle1204" />
          <circle
             style="stroke-width:0.78017998"
             cx="195.155"
             cy="340.28799"
             r="1.625"
             id="circle1206" />
        </g>
      </g>
    </g>
    <g
       id="g1749"
       transform="rotate(180,353.51571,982.791)">
      <g
         id="g1747"
         transform="translate(-80,614)">
        <path
           inkscape:connector-curvature="0"
           id="path1603"
           d="m 7.7460938,230.2168 c -10.8308348,0 -20.3644268,5.5387 -25.9374998,13.93164 l -0.002,-0.002 c 0,0 -15.087891,15.56381 -15.087891,126.44336 0,69.78903 6.38226,100.75898 11.109375,114.13282 3.715809,13.02648 15.6994539,22.5664 29.9179688,22.5664 v 0.0742 h 413.4257832 v 0.002 c 6.63436,0 12.01367,-5.37802 12.01367,-12.01367 v -253.12109 c 0,-6.63436 -5.37931,-12.01367 -12.01367,-12.01367 z m 243.8339862,58.70703 h 136.98828 v 159.36719 h -136.98828 z"
           style="fill:#78bc00;fill-opacity:1;stroke-width:1" />
        <path
           inkscape:connector-curvature="0"
           id="path1605"
           d="m 36.947266,274.58203 c -7.361832,0 -13.842537,3.76507 -17.632813,9.4707 -0.0039,0.007 -5.634765,10.60588 -5.634765,85.96094 0,47.44546 -0.284956,68.50031 2.929687,77.5918 2.527622,8.85565 10.672172,15.34375 20.337891,15.34375 h 4.625 v 0.0508 h 391.613284 v -188.41797 h -396.236331 z m 214.632814,14.3418 h 136.98828 v 159.36719 h -136.98828 z"
           style="opacity:0.15;fill:#ffffff;stroke-width:1" />
        <circle
           transform="rotate(90)"
           id="circle1607"
           r="17.165272"
           cy="-119.98674"
           cx="416.50934"
           style="fill:#333334;stroke-width:1" />
        <circle
           transform="rotate(90)"
           id="circle1609"
           r="17.166552"
           cy="-135.62544"
           cx="467.24506"
           style="fill:#333334;stroke-width:1" />
        <path
           id="path1611"
           d="m 140.46278,316.00558 v -17.54723 h 17.54724 c 1.92904,0 3.49278,-1.56374 3.49278,-3.49279 v -17.29344 c 0,-1.92776 -1.56374,-3.4915 -3.49278,-3.4915 h -17.54724 v -17.54724 c 0,-1.92904 -1.56246,-3.49278 -3.49278,-3.49278 h -17.29217 c -1.92904,0 -3.49278,1.56374 -3.49278,3.49278 v 17.54724 h -17.545952 c -1.930324,0 -3.494066,1.56374 -3.494066,3.4915 v 17.29344 c 0,1.92905 1.563742,3.49279 3.494066,3.49279 h 17.545952 v 17.54723 c 0,1.92904 1.56374,3.49279 3.49278,3.49279 h 17.29217 c 1.93032,0 3.49278,-1.56375 3.49278,-3.49279 z"
           inkscape:connector-curvature="0"
           style="fill:#333334;stroke-width:1" />
        <path
           id="path1613"
           d="m 52.692005,354.74921 v -16.44493 c 0,-2.26998 -1.840601,-4.11059 -4.111872,-4.11059 -2.269989,0 -4.11059,1.84061 -4.11059,4.11059 v 16.44621 c 0,2.26999 1.841882,4.11187 4.11059,4.11187 2.271271,-0.001 4.111872,-1.84188 4.111872,-4.11315 z"
           inkscape:connector-curvature="0"
           style="stroke-width:1" />
        <path
           id="path1615"
           d="m 52.692005,396.28578 v -16.44492 c 0,-2.26999 -1.840601,-4.11188 -4.111872,-4.11188 -2.269989,0 -4.11059,1.84189 -4.11059,4.11188 v 16.44492 c 0,2.26999 1.841882,4.11187 4.11059,4.11187 2.271271,0 4.111872,-1.8406 4.111872,-4.11187 z"
           inkscape:connector-curvature="0"
           style="stroke-width:1" />
        <circle
           transform="rotate(90)"
           id="circle1617"
           r="6.6971731"
           cy="-128.32457"
           cx="286.38293"
           style="fill:#414042;stroke-width:1" />
        <path
           id="path1619"
           d="m 110.44919,292.54561 0.004,-0.003 c 0.12048,0.0436 0.24994,0.0718 0.38581,0.0718 0.6319,0 1.14589,-0.5127 1.14589,-1.1446 v -10.1733 c 0,-0.6319 -0.51271,-1.14461 -1.14589,-1.14461 -0.15253,0 -0.29737,0.0308 -0.43067,0.0859 h -0.003 l -0.004,0.001 c -0.0718,0.0295 -0.13843,0.0667 -0.20252,0.10895 l -9.33759,4.97962 c -0.41272,0.17304 -0.70368,0.58064 -0.70368,1.05617 0,0.44861 0.25891,0.83058 0.63447,1.019 v 0 l 9.38629,4.99884 c 0.0782,0.0551 0.1615,0.1 0.25123,0.13331 z"
           inkscape:connector-curvature="0"
           style="fill:#414042;stroke-width:1" />
        <path
           id="path1621"
           d="m 146.19864,280.22025 -0.004,0.003 c -0.12176,-0.0436 -0.24994,-0.0718 -0.38709,-0.0718 -0.63062,0 -1.1446,0.51142 -1.1446,1.14461 v 10.17329 c 0,0.63191 0.5127,1.14461 1.1446,1.14461 0.15381,0 0.29865,-0.0308 0.43196,-0.0859 h 0.003 l 0.003,-10e-4 c 0.0718,-0.0295 0.13971,-0.0667 0.2038,-0.10895 l 9.33631,-4.97962 c 0.41272,-0.17303 0.70497,-0.58063 0.70497,-1.05616 0,-0.44734 -0.2602,-0.83058 -0.63447,-1.019 v -0.001 l -9.3863,-4.99757 c -0.0782,-0.0551 -0.1615,-0.1 -0.25122,-0.1333 z"
           inkscape:connector-curvature="0"
           style="fill:#414042;stroke-width:1" />
        <path
           id="path1623"
           d="m 134.48596,304.25829 -0.003,-0.004 c 0.0436,-0.12177 0.0718,-0.24995 0.0718,-0.38709 0,-0.63191 -0.5127,-1.14461 -1.14461,-1.14461 h -10.17457 c -0.63191,0 -1.14461,0.5127 -1.14461,1.14461 0,0.15381 0.0308,0.29865 0.0859,0.43195 h -10e-4 l 0.003,0.004 c 0.0295,0.0718 0.0654,0.13972 0.10767,0.2038 l 4.9809,9.33759 c 0.17304,0.41273 0.57935,0.70369 1.05488,0.70369 0.44862,0 0.83058,-0.25892 1.02028,-0.63447 v 0 l 4.99757,-9.3863 c 0.0564,-0.0782 0.1,-0.1615 0.1333,-0.25122 z"
           inkscape:connector-curvature="0"
           style="fill:#414042;stroke-width:1" />
        <path
           id="path1625"
           d="m 122.16059,268.50885 0.004,0.004 c -0.0436,0.12049 -0.0718,0.24994 -0.0718,0.38581 0,0.63191 0.51142,1.14461 1.14461,1.14461 h 10.17458 c 0.63062,0 1.1446,-0.5127 1.1446,-1.14461 0,-0.15381 -0.0308,-0.29865 -0.0859,-0.43195 l 0.001,-10e-4 -0.001,-0.004 c -0.0295,-0.0718 -0.0667,-0.13971 -0.10895,-0.2038 l -4.97962,-9.33759 c -0.17304,-0.41272 -0.58192,-0.7024 -1.05617,-0.7024 -0.44862,0 -0.83058,0.25892 -1.019,0.63319 h -10e-4 l -4.99884,9.38758 c -0.0538,0.0769 -0.0987,0.1615 -0.13331,0.25122 z"
           inkscape:connector-curvature="0"
           style="fill:#414042;stroke-width:1" />
        <g
           transform="matrix(0,1.2817556,-1.2817556,0,433.185,230.21768)"
           id="g1629"
           style="stroke-width:0.78017998">
          <path
             id="path1627"
             d="m 142.388,251.008 h -3.274 v -12.321 h 3.098 c 1.954,0 3.415,0.968 3.415,3.257 0,1.003 -0.457,2.094 -1.443,2.552 1.039,0.37 1.654,1.461 1.654,2.799 -0.001,2.463 -1.409,3.713 -3.45,3.713 z m -0.124,-10.649 h -1.443 v 3.345 h 1.408 c 0.916,0 1.637,-0.528 1.637,-1.707 -0.001,-1.215 -0.67,-1.638 -1.602,-1.638 z m -0.071,4.999 h -1.373 v 3.978 h 1.55 c 1.038,0 1.707,-0.562 1.707,-2.041 0,-1.374 -0.809,-1.937 -1.884,-1.937 z"
             inkscape:connector-curvature="0"
             style="fill:#414042;stroke-width:0.78017998" />
        </g>
        <g
           transform="matrix(0,1.2817556,-1.2817556,0,433.185,230.21768)"
           id="g1633"
           style="stroke-width:0.78017998">
          <path
             id="path1631"
             d="m 184.629,238.905 -0.722,-3.256 h -2.676 l -0.704,3.256 h -1.83 l 3.027,-12.32 h 1.778 l 3.01,12.32 z m -1.531,-6.97 c -0.176,-0.81 -0.44,-2.235 -0.528,-2.693 -0.088,0.458 -0.352,1.866 -0.527,2.693 l -0.458,2.076 h 1.972 z"
             inkscape:connector-curvature="0"
             style="fill:#414042;stroke-width:0.78017998" />
        </g>
        <path
           inkscape:connector-curvature="0"
           id="path1635"
           d="m 218.68945,247.01172 c -4.37079,0 -7.94396,3.37982 -8.26953,7.66601 h -0.0312 c 0,0 -7.04101,37.72224 -7.04101,113.80469 0,76.08245 7.04101,113.80469 7.04101,113.80469 h 0.0312 c 0.32557,4.2862 3.89874,7.66406 8.26953,7.66406 h 189.20703 c 4.58612,0.001 8.30079,-3.71594 8.30079,-8.30078 v -226.33594 c 0,-4.58484 -3.71467,-8.30273 -8.30079,-8.30273 z m 32.89063,41.91211 h 136.98828 v 159.36719 h -136.98828 z"
           style="stroke-width:1" />
        <path
           inkscape:connector-curvature="0"
           id="path1637"
           d="m 221.67578,250.99414 c -4.22723,0 -7.68469,3.27083 -8,7.41602 h -0.0293 c 0,0 -6.80859,36.48539 -6.80859,110.07226 0,73.58815 6.80859,110.07031 6.80859,110.07031 h 0.0293 c 0.26148,3.44792 2.70186,6.28509 5.94727,7.14258 l 32.10156,-37.40429 h -0.14453 v -159.36719 h 136.91992 l 24.20703,-28.20508 v -1.69336 c 0,-4.4336 -3.59442,-8.03125 -8.0293,-8.03125 z"
           style="fill:#333334;stroke-width:1" />
        <g
           transform="matrix(0,1.2817556,-1.2817556,0,433.185,230.21768)"
           id="g1649"
           style="stroke-width:0.78017998">
          <path
             id="path1639"
             d="m 19.58,71.789 h 1.185 c 0.184,0 0.36,0.018 0.527,0.054 0.167,0.036 0.316,0.096 0.446,0.18 0.13,0.084 0.233,0.197 0.311,0.338 0.078,0.141 0.115,0.315 0.115,0.522 0,0.218 -0.042,0.399 -0.124,0.542 -0.083,0.143 -0.189,0.256 -0.319,0.339 -0.129,0.083 -0.271,0.141 -0.426,0.175 -0.154,0.034 -0.301,0.051 -0.44,0.051 h -0.801 v 1.793 h -0.474 z m 0.474,1.76 h 0.801 c 0.237,0 0.43,-0.053 0.578,-0.161 0.148,-0.107 0.223,-0.273 0.223,-0.499 0,-0.226 -0.075,-0.393 -0.223,-0.5 -0.148,-0.107 -0.341,-0.161 -0.578,-0.161 h -0.801 z"
             inkscape:connector-curvature="0"
             style="fill:#414042;stroke-width:0.78017998" />
          <path
             id="path1641"
             d="m 24.668,75.884 c -0.305,0 -0.583,-0.053 -0.837,-0.158 -0.254,-0.105 -0.474,-0.251 -0.66,-0.437 -0.186,-0.187 -0.331,-0.408 -0.435,-0.666 -0.104,-0.257 -0.155,-0.537 -0.155,-0.837 0,-0.3 0.051,-0.581 0.155,-0.838 0.104,-0.257 0.249,-0.479 0.435,-0.666 0.186,-0.187 0.406,-0.332 0.66,-0.438 0.254,-0.105 0.533,-0.158 0.837,-0.158 0.304,0 0.584,0.053 0.838,0.158 0.254,0.105 0.474,0.251 0.66,0.438 0.186,0.186 0.331,0.408 0.434,0.666 0.104,0.257 0.155,0.537 0.155,0.838 0,0.301 -0.052,0.58 -0.155,0.837 -0.103,0.258 -0.248,0.479 -0.434,0.666 -0.187,0.186 -0.406,0.332 -0.66,0.437 -0.254,0.106 -0.533,0.158 -0.838,0.158 z m 0,-0.44 c 0.233,0 0.447,-0.043 0.64,-0.13 0.194,-0.086 0.361,-0.205 0.5,-0.355 0.139,-0.151 0.247,-0.326 0.324,-0.528 0.077,-0.201 0.115,-0.416 0.115,-0.646 0,-0.23 -0.038,-0.445 -0.115,-0.646 -0.077,-0.201 -0.186,-0.377 -0.324,-0.528 -0.139,-0.15 -0.306,-0.269 -0.5,-0.355 -0.193,-0.086 -0.407,-0.13 -0.64,-0.13 -0.233,0 -0.446,0.043 -0.64,0.13 -0.194,0.087 -0.36,0.205 -0.499,0.355 -0.139,0.15 -0.247,0.327 -0.324,0.528 -0.077,0.201 -0.116,0.417 -0.116,0.646 0,0.229 0.039,0.444 0.116,0.646 0.077,0.202 0.185,0.377 0.324,0.528 0.139,0.15 0.305,0.269 0.499,0.355 0.194,0.086 0.407,0.13 0.64,0.13 z"
             inkscape:connector-curvature="0"
             style="fill:#414042;stroke-width:0.78017998" />
          <path
             id="path1643"
             d="m 26.941,71.789 h 0.524 l 0.909,3.317 h 0.011 l 0.981,-3.317 h 0.53 l 0.976,3.317 h 0.011 l 0.925,-3.317 h 0.497 l -1.173,3.994 h -0.512 l -0.987,-3.384 h -0.011 l -0.993,3.384 h -0.519 z"
             inkscape:connector-curvature="0"
             style="fill:#414042;stroke-width:0.78017998" />
          <path
             id="path1645"
             d="m 32.836,71.789 h 2.511 v 0.44 h -2.037 v 1.252 h 1.901 v 0.44 h -1.901 v 1.422 h 2.138 v 0.439 h -2.612 z"
             inkscape:connector-curvature="0"
             style="fill:#414042;stroke-width:0.78017998" />
          <path
             id="path1647"
             d="m 36.182,71.789 h 1.021 c 0.192,0 0.382,0.011 0.572,0.034 0.19,0.023 0.361,0.072 0.511,0.147 0.15,0.075 0.272,0.185 0.367,0.33 0.094,0.145 0.141,0.341 0.141,0.59 0,0.293 -0.088,0.53 -0.265,0.71 -0.177,0.181 -0.421,0.295 -0.733,0.344 l 1.134,1.839 h -0.581 l -1.083,-1.793 h -0.609 v 1.793 h -0.474 v -3.994 z m 0.473,1.76 h 0.423 c 0.131,0 0.268,-0.003 0.409,-0.011 0.141,-0.008 0.271,-0.032 0.389,-0.074 0.119,-0.042 0.216,-0.106 0.293,-0.194 0.077,-0.088 0.116,-0.215 0.116,-0.381 0,-0.143 -0.028,-0.258 -0.084,-0.344 -0.056,-0.086 -0.131,-0.153 -0.223,-0.2 -0.092,-0.047 -0.195,-0.078 -0.31,-0.093 -0.114,-0.016 -0.23,-0.023 -0.347,-0.023 h -0.666 z"
             inkscape:connector-curvature="0"
             style="fill:#414042;stroke-width:0.78017998" />
        </g>
        <circle
           transform="rotate(90)"
           id="circle1651"
           r="3.7299089"
           cy="-349.91318"
           cx="257.22171"
           style="fill:#ce181e;stroke-width:1" />
        <path
           id="path1653"
           d="m 353.17653,278.40144 c -0.89466,0.7165 -2.02773,1.14589 -3.26335,1.14589 -1.23433,0 -2.36868,-0.42939 -3.26335,-1.14589 0.33711,1.49324 1.66885,2.60837 3.26335,2.60837 1.59451,-0.001 2.92625,-1.11641 3.26335,-2.60837 z"
           inkscape:connector-curvature="0"
           style="fill:#414042;stroke-width:1" />
        <path
           id="path1655"
           d="m 353.24703,271.8209 c -0.9062,0.74855 -2.06619,1.19844 -3.33385,1.19844 -1.26637,0 -2.42764,-0.44989 -3.33256,-1.19844 0.15509,1.70602 1.58681,3.04289 3.33256,3.04289 1.74576,0 3.17876,-1.33687 3.33385,-3.04289 z"
           inkscape:connector-curvature="0"
           style="fill:#414042;stroke-width:1" />
        <path
           id="path1657"
           d="m 353.26241,264.66999 c 0,-0.0282 -0.003,-0.0564 -0.004,-0.0859 -0.90749,0.75496 -2.0726,1.2087 -3.3441,1.2087 -1.27151,0 -2.43662,-0.45374 -3.3441,-1.2087 0,0.0295 -0.004,0.0564 -0.004,0.0859 0,1.84829 1.49837,3.34794 3.34795,3.34794 1.84957,0 3.34794,-1.49837 3.34794,-3.34794 z"
           inkscape:connector-curvature="0"
           style="fill:#414042;stroke-width:1" />
        <g
           transform="matrix(0,1.2817556,-1.2817556,0,433.185,230.21768)"
           id="g1669"
           style="stroke-width:0.78017998">
          <polygon
             id="polygon1659"
             points="90.086,152.52 84.393,152.52 82.649,163.086 88.347,163.086 88.677,161.086 85.093,161.086 85.482,158.739 88.599,158.739 88.928,156.743 85.813,156.743 86.19,154.469 89.77,154.469 "
             style="fill:#414042;stroke-width:0.78017998" />
          <path
             id="path1661"
             d="m 79.443,152.52 -2.577,5.746 -1.244,-5.746 h -2 l -2.901,8.92 -1.407,-8.92 h -2.514 l -3.896,8.54 0.358,-3.052 h -3.907 v 1.949 h 1.497 l -0.068,0.939 c 0,0 -0.51,0.414 -1.6,0.395 -1.388,-0.025 -2.738,-1.089 -2.616,-3.078 0.128,-2.077 2.308,-3.924 4.745,-3.949 1.574,-0.016 2.333,0.436 2.333,0.436 v -2 c 0,0 -0.154,-0.517 -2.206,-0.517 -3.427,0 -6.896,2.729 -6.898,6.235 -0.002,2.744 1.847,4.873 4.787,4.736 1.619,-0.075 2.548,-0.547 3.035,-0.912 l -0.385,0.844 h 2.309 l 1.387,-3.129 h 2.651 l 0.527,3.129 h 1.333 0.795 1.436 l 1.855,-6.069 1.453,6.069 h 1.333 l 2.945,-6.583 0.184,6.583 h 2.051 l -0.436,-10.566 z m -12.904,5.488 1.057,-2.385 0.401,2.385 z"
             inkscape:connector-curvature="0"
             style="fill:#414042;stroke-width:0.78017998" />
          <path
             id="path1663"
             d="m 106.337,152.557 c -2.336,-0.601 -4.833,1.26 -5.58,4.158 -0.745,2.897 0.544,5.732 2.88,6.334 2.334,0.601 4.833,-1.261 5.578,-4.158 0.746,-2.897 -0.543,-5.732 -2.878,-6.334 z m 0.959,5.84 c -0.464,1.802 -1.874,2.997 -3.149,2.668 -1.275,-0.329 -1.934,-2.055 -1.471,-3.857 0.465,-1.803 1.875,-2.997 3.15,-2.668 1.275,0.329 1.934,2.056 1.47,3.857 z"
             inkscape:connector-curvature="0"
             style="fill:#414042;stroke-width:0.78017998" />
          <polygon
             id="polygon1665"
             points="110.947,157.718 110.295,163.086 112.321,163.086 112.937,158.316 116.809,152.52 114.424,152.52 112.271,156.11 110.731,152.52 108.474,152.52 "
             style="fill:#414042;stroke-width:0.78017998" />
          <path
             id="path1667"
             d="m 100.276,155.255 c 0,-1.983 -1.265,-2.735 -2.428,-2.735 h -3.949 l -1.744,10.566 h 4.633 c 1.539,0 3.214,-1.112 3.214,-3.13 0,-2.017 -1.351,-2.29 -1.351,-2.29 0,0 1.625,-0.428 1.625,-2.411 z m -3.317,-0.786 c 0.717,0 1.129,0.342 1.111,1.025 -0.018,0.77 -0.411,1.249 -1.128,1.249 h -1.623 l 0.377,-2.274 z m -1.971,4.27 h 1.664 c 0.991,0.039 1.299,0.415 1.299,1.167 0,0.701 -0.352,1.181 -1.441,1.181 h -1.911 z"
             inkscape:connector-curvature="0"
             style="fill:#414042;stroke-width:0.78017998" />
        </g>
        <g
           transform="matrix(0,1.2817556,-1.2817556,0,433.185,230.21768)"
           id="g1681"
           style="stroke-width:0.78017998">
          <path
             id="path1671"
             d="m 159.927,164.036 c -0.296,0 -0.592,-0.102 -0.832,-0.311 -0.03,-0.025 -3.002,-2.597 -3.889,-3.339 -0.085,-0.07 -0.168,-0.136 -0.248,-0.195 0.009,1.446 -0.104,2.464 -0.111,2.525 -0.078,0.698 -0.711,1.201 -1.408,1.121 -0.698,-0.079 -1.2,-0.709 -1.122,-1.407 v 0 c 0.002,-0.02 0.213,-1.952 -0.002,-4.194 -0.361,-3.771 -0.393,-4.792 1.146,-5.602 l 0.041,-0.022 c 1.124,-0.595 3.057,-0.473 4.304,-0.056 0.854,0.285 1.917,0.64 2.385,1.623 0.185,0.388 0.338,1.03 0.017,1.88 -0.438,1.164 -1.755,2.058 -3.043,2.646 1.129,0.957 3.487,2.999 3.598,3.094 0.531,0.461 0.59,1.265 0.129,1.797 -0.253,0.291 -0.608,0.44 -0.965,0.44 z m -5.259,-9.16 c -0.035,0.396 0.019,1.253 0.081,2.009 1.208,-0.31 2.684,-1.096 3.022,-1.625 -0.23,-0.108 -0.592,-0.229 -0.772,-0.289 -0.905,-0.302 -2.037,-0.251 -2.307,-0.109 z"
             inkscape:connector-curvature="0"
             style="fill:#00a2bc;stroke-width:0.78017998" />
          <path
             id="path1673"
             d="m 124.515,163.94 c -1.987,0 -3.401,-0.414 -4.363,-1.262 -0.922,-0.812 -1.388,-1.995 -1.388,-3.517 0,-3.201 3.73,-7.611 6.438,-7.611 1.255,0 1.954,0.487 2.32,0.896 0.679,0.759 0.617,1.649 0.599,1.82 -0.077,0.699 -0.707,1.204 -1.407,1.125 -0.646,-0.073 -1.125,-0.617 -1.132,-1.252 -0.069,-0.02 -0.193,-0.042 -0.38,-0.042 -0.876,0 -3.893,2.875 -3.893,5.065 0,1.024 0.3,1.406 0.524,1.605 0.493,0.434 1.737,0.868 4.863,0.471 0.694,-0.089 1.335,0.404 1.424,1.102 0.089,0.698 -0.404,1.336 -1.103,1.424 -0.919,0.117 -1.751,0.176 -2.502,0.176 z"
             inkscape:connector-curvature="0"
             style="fill:#dc1f40;stroke-width:0.78017998" />
          <path
             id="path1675"
             d="m 131.684,163.447 c -2.449,0 -4.305,-1.491 -4.617,-3.711 -0.179,-1.268 0.219,-2.649 1.092,-3.793 0.961,-1.259 2.387,-2.093 3.912,-2.289 0.155,-0.02 0.312,-0.029 0.47,-0.029 2.207,0 4.12,1.918 4.355,4.368 0.265,2.763 -1.414,4.921 -4.177,5.369 -0.348,0.056 -0.697,0.085 -1.035,0.085 z m 0.856,-7.276 c -0.05,0 -0.099,0.002 -0.146,0.009 -0.854,0.108 -1.66,0.585 -2.211,1.307 -0.462,0.605 -0.679,1.295 -0.595,1.893 0.193,1.371 1.53,1.52 2.096,1.52 0.203,0 0.414,-0.018 0.627,-0.053 1.418,-0.229 2.184,-1.206 2.05,-2.611 -0.124,-1.276 -1.041,-2.065 -1.821,-2.065 z"
             inkscape:connector-curvature="0"
             style="fill:#622d91;stroke-width:0.78017998" />
          <path
             id="path1677"
             d="m 146.936,163.376 c -2.152,0 -3.793,-1.317 -4.391,-3.524 -0.335,-1.236 -0.049,-2.595 0.783,-3.728 0.975,-1.324 2.535,-2.123 4.284,-2.189 0.068,-0.003 0.139,-0.004 0.208,-0.004 2.49,0 4.448,1.659 4.653,3.943 0.236,2.637 -1.375,4.685 -4.206,5.343 -0.454,0.107 -0.902,0.159 -1.331,0.159 z m 0.884,-6.898 c -0.037,0 -0.074,0.001 -0.11,0.002 -0.97,0.037 -1.818,0.458 -2.329,1.153 -0.365,0.496 -0.507,1.077 -0.377,1.554 0.295,1.091 0.945,1.644 1.932,1.644 0.234,0 0.49,-0.031 0.756,-0.094 0.908,-0.211 2.407,-0.834 2.245,-2.635 -0.116,-1.282 -1.385,-1.624 -2.117,-1.624 z"
             inkscape:connector-curvature="0"
             style="fill:#f9d308;stroke-width:0.78017998" />
          <path
             id="path1679"
             d="m 138.608,163.847 c -0.234,0 -0.476,-0.054 -0.716,-0.188 -0.846,-0.468 -0.846,-1.335 -0.846,-2.433 0,-0.755 -0.12,-2.29 -0.226,-3.645 -0.045,-0.577 -0.089,-1.133 -0.121,-1.611 -0.093,-1.329 -0.532,-2.223 -0.537,-2.231 -0.322,-0.625 -0.076,-1.39 0.55,-1.712 0.623,-0.323 1.394,-0.075 1.717,0.55 0.069,0.135 0.684,1.368 0.811,3.218 0.033,0.472 0.075,1.021 0.119,1.589 0.094,1.203 0.19,2.439 0.223,3.316 1.168,-0.475 2.534,-0.634 2.996,-0.634 0.703,0 1.273,0.57 1.273,1.273 0,0.703 -0.57,1.273 -1.273,1.273 -0.327,0 -1.725,0.199 -2.427,0.639 -0.401,0.252 -0.951,0.596 -1.543,0.596 z"
             inkscape:connector-curvature="0"
             style="fill:#8dc13e;stroke-width:0.78017998" />
        </g>
        <path
           id="path1683"
           d="m 221.6761,485.96894 h 183.00266 c 4.43487,0 8.03019,-3.59533 8.03019,-8.0302 v -217.2204 l -193.08494,224.97758 c 0.65498,0.17432 1.34072,0.27302 2.05209,0.27302 z"
           inkscape:connector-curvature="0"
           style="opacity:0.3;fill:#ffffff;stroke-width:1" />
        <g
           transform="matrix(0,1.2817556,-1.2817556,0,433.185,230.21768)"
           id="g1745"
           style="stroke-width:0.78017998">
          <circle
             id="circle1685"
             r="1.625"
             cy="309.07501"
             cx="157.705"
             style="stroke-width:0.78017998" />
          <circle
             id="circle1687"
             r="1.625"
             cy="307.35101"
             cx="170.073"
             style="stroke-width:0.78017998" />
          <circle
             id="circle1689"
             r="1.625"
             cy="305.405"
             cx="182.614"
             style="stroke-width:0.78017998" />
          <circle
             id="circle1691"
             r="1.625"
             cy="302.987"
             cx="195.155"
             style="stroke-width:0.78017998" />
          <circle
             id="circle1693"
             r="1.625"
             cy="314.341"
             cx="163.888"
             style="stroke-width:0.78017998" />
          <circle
             id="circle1695"
             r="1.625"
             cy="312.543"
             cx="176.38"
             style="stroke-width:0.78017998" />
          <circle
             id="circle1697"
             r="1.625"
             cy="310.423"
             cx="188.87199"
             style="stroke-width:0.78017998" />
          <circle
             id="circle1699"
             r="1.625"
             cy="301.983"
             cx="163.888"
             style="stroke-width:0.78017998" />
          <circle
             id="circle1701"
             r="1.625"
             cy="300.11099"
             cx="176.38"
             style="stroke-width:0.78017998" />
          <circle
             id="circle1703"
             r="1.625"
             cy="298.13901"
             cx="188.87199"
             style="stroke-width:0.78017998" />
          <circle
             id="circle1705"
             r="1.625"
             cy="307.85599"
             cx="201.388"
             style="stroke-width:0.78017998" />
          <circle
             id="circle1707"
             r="1.625"
             cy="321.44299"
             cx="157.705"
             style="stroke-width:0.78017998" />
          <circle
             id="circle1709"
             r="1.625"
             cy="319.819"
             cx="170.073"
             style="stroke-width:0.78017998" />
          <circle
             id="circle1711"
             r="1.625"
             cy="317.698"
             cx="182.614"
             style="stroke-width:0.78017998" />
          <circle
             id="circle1713"
             r="1.625"
             cy="315.39499"
             cx="195.155"
             style="stroke-width:0.78017998" />
          <circle
             id="circle1715"
             r="1.625"
             cy="326.84"
             cx="163.888"
             style="stroke-width:0.78017998" />
          <circle
             id="circle1717"
             r="1.625"
             cy="324.91199"
             cx="176.256"
             style="stroke-width:0.78017998" />
          <circle
             id="circle1719"
             r="1.625"
             cy="322.87299"
             cx="188.87199"
             style="stroke-width:0.78017998" />
          <circle
             id="circle1721"
             r="1.625"
             cy="320.25"
             cx="201.388"
             style="stroke-width:0.78017998" />
          <circle
             id="circle1723"
             r="1.625"
             cy="333.811"
             cx="157.705"
             style="stroke-width:0.78017998" />
          <circle
             id="circle1725"
             r="1.625"
             cy="332.186"
             cx="170.073"
             style="stroke-width:0.78017998" />
          <circle
             id="circle1727"
             r="1.625"
             cy="330.33801"
             cx="182.614"
             style="stroke-width:0.78017998" />
          <circle
             id="circle1729"
             r="1.625"
             cy="327.82101"
             cx="195.155"
             style="stroke-width:0.78017998" />
          <circle
             id="circle1731"
             r="1.625"
             cy="339.349"
             cx="163.888"
             style="stroke-width:0.78017998" />
          <circle
             id="circle1733"
             r="1.625"
             cy="337.577"
             cx="176.256"
             style="stroke-width:0.78017998" />
          <circle
             id="circle1735"
             r="1.625"
             cy="335.40601"
             cx="188.87199"
             style="stroke-width:0.78017998" />
          <circle
             id="circle1737"
             r="1.625"
             cy="332.79001"
             cx="201.388"
             style="stroke-width:0.78017998" />
          <circle
             id="circle1739"
             r="1.625"
             cy="344.728"
             cx="170.073"
             style="stroke-width:0.78017998" />
          <circle
             id="circle1741"
             r="1.625"
             cy="342.755"
             cx="182.614"
             style="stroke-width:0.78017998" />
          <circle
             id="circle1743"
             r="1.625"
             cy="340.28799"
             cx="195.155"
             style="stroke-width:0.78017998" />
        </g>
      </g>
    </g>
  </g>
</svg>
